<?xml version="1.0" encoding="UTF-8" standalone="no"?>
<!-- Created with Inkscape (http://www.inkscape.org/) -->

<svg
   width="210mm"
   height="297mm"
   viewBox="0 0 210 297"
   version="1.1"
   id="svg1"
   xml:space="preserve"
   inkscape:version="1.4.2 (f4327f4, 2025-05-13)"
   sodipodi:docname="логотип.svg"
   xmlns:inkscape="http://www.inkscape.org/namespaces/inkscape"
   xmlns:sodipodi="http://sodipodi.sourceforge.net/DTD/sodipodi-0.dtd"
   xmlns="http://www.w3.org/2000/svg"
   xmlns:svg="http://www.w3.org/2000/svg"><sodipodi:namedview
     id="namedview1"
     pagecolor="#ffffff"
     bordercolor="#000000"
     borderopacity="0.25"
     inkscape:showpageshadow="2"
     inkscape:pageopacity="0.0"
     inkscape:pagecheckerboard="0"
     inkscape:deskcolor="#d1d1d1"
     inkscape:document-units="mm"
     inkscape:zoom="1.4378367"
     inkscape:cx="435.72403"
     inkscape:cy="542.13389"
     inkscape:window-width="1920"
     inkscape:window-height="1009"
     inkscape:window-x="1912"
     inkscape:window-y="-8"
     inkscape:window-maximized="1"
     inkscape:current-layer="layer1" /><defs
     id="defs1" /><g
     inkscape:label="Слой 1"
     inkscape:groupmode="layer"
     id="layer1"><g
       id="g3"
       inkscape:export-filename="logo.png"
       inkscape:export-xdpi="150"
       inkscape:export-ydpi="150"><rect
         style="fill:#87bcf9;fill-opacity:1;stroke:none;stroke-width:0.203927"
         id="rect1-1"
         width="108.74375"
         height="108.74375"
         x="50.628124"
         y="94.128128"
         ry="22.900797" /><path
         id="rect1"
         style="fill:#56a26f;fill-opacity:0.99607843;stroke:none;stroke-width:0.203927"
         d="M 124.27252 126.87494 C 123.90665 126.87494 123.54104 127.01524 123.26069 127.29559 L 94.038188 159.46158 L 78.7585 144.1819 C 78.197807 143.6212 77.295028 143.6212 76.734334 144.1819 L 50.627917 170.2878 L 50.627917 179.97093 C 50.627917 192.65797 60.841804 202.87185 73.528845 202.87185 L 136.47126 202.87185 C 149.1583 202.87185 159.37167 192.65797 159.37167 179.97093 L 159.37167 162.65415 L 125.28486 127.29559 C 125.0097 127.01016 124.63839 126.87494 124.27252 126.87494 z " /><path
         id="path1"
         style="fill:#ff2a2a;fill-opacity:1;stroke:none;stroke-width:0.221"
         d="m 94.856527,108.12811 c -8.623559,-2e-4 -15.614468,6.99047 -15.61455,15.61403 0.0034,6.56435 3.905226,12.05469 7.615786,17.3381 3.82857,5.45144 6.876421,10.73721 8.198059,10.6322 1.634068,-0.0976 4.506074,-5.56798 8.581878,-11.45631 3.73208,-5.39177 6.83291,-10.64125 6.83291,-16.51399 -8e-5,-8.62336 -6.99068,-15.61395 -15.614036,-15.61403 z m -5.17e-4,8.45788 c 4.024303,-1.5e-4 7.28676,3.26208 7.28689,7.28638 1.5e-4,4.0245 -3.262388,7.28704 -7.28689,7.28689 -4.0243,-1.3e-4 -7.286527,-3.26259 -7.286376,-7.28689 1.31e-4,-4.0241 3.262275,-7.28625 7.286376,-7.28638 z"
         sodipodi:nodetypes="scscscsssssss" /><path
         style="fill:#ffffff;fill-opacity:1;stroke:none;stroke-width:0.321;stroke-linecap:square;stroke-miterlimit:4.5;stroke-dasharray:none;stroke-opacity:1"
         d="m 92.191448,164.87339 c 4.23235,4.32436 41.951322,-3.95845 39.195182,19.04947 -0.9343,7.79943 -14.00813,18.94902 -14.00813,18.94902 l -43.849655,-3e-5 c 0,0 26.414443,-12.28729 34.763915,-21.6927 6.63257,-7.47138 -21.365042,-9.86005 -22.725842,-14.09365 -1.65613,-5.15242 8.47127,-7.62392 8.47127,-7.62392 0,0 -4.95719,2.23374 -1.84674,5.41181 z"
         id="path2"
         sodipodi:nodetypes="ssccsscs" /></g></g></svg>
