<?xml version="1.0" encoding="UTF-8" standalone="no"?>
<!-- Created with Inkscape (http://www.inkscape.org/) -->

<svg
   width="210mm"
   height="297mm"
   viewBox="0 0 210 297"
   version="1.1"
   id="svg1"
   xml:space="preserve"
   inkscape:version="1.4.2 (f4327f4, 2025-05-13)"
   sodipodi:docname="1_version.svg"
   xmlns:inkscape="http://www.inkscape.org/namespaces/inkscape"
   xmlns:sodipodi="http://sodipodi.sourceforge.net/DTD/sodipodi-0.dtd"
   xmlns="http://www.w3.org/2000/svg"
   xmlns:svg="http://www.w3.org/2000/svg"><sodipodi:namedview
     id="namedview1"
     pagecolor="#ffffff"
     bordercolor="#000000"
     borderopacity="0.25"
     inkscape:showpageshadow="2"
     inkscape:pageopacity="0.0"
     inkscape:pagecheckerboard="0"
     inkscape:deskcolor="#d1d1d1"
     inkscape:document-units="mm"
     inkscape:zoom="0.71891835"
     inkscape:cx="210.03776"
     inkscape:cy="587.68843"
     inkscape:window-width="1920"
     inkscape:window-height="1009"
     inkscape:window-x="1912"
     inkscape:window-y="-8"
     inkscape:window-maximized="1"
     inkscape:current-layer="layer1" /><defs
     id="defs1" /><g
     inkscape:label="Слой 1"
     inkscape:groupmode="layer"
     id="layer1"><g
       id="g3"
       inkscape:export-filename="3_version_logo.png"
       inkscape:export-xdpi="200"
       inkscape:export-ydpi="200"
       transform="translate(0,-79.632315)"><rect
         style="fill:#abdee5;fill-opacity:1;stroke:none;stroke-width:0.203927"
         id="rect1-1"
         width="108.74375"
         height="108.74375"
         x="50.628124"
         y="94.128128"
         ry="22.900797" /><path
         id="rect1"
         style="fill:#13889b;fill-opacity:0.996078;stroke:none;stroke-width:0.203927"
         d="m 73.528845,202.87185 c 0,0 26.414298,-12.28732 34.763765,-21.69273 6.63257,-7.47138 -21.36494,-9.86011 -22.72574,-14.09371 -1.65613,-5.15242 8.471318,-7.62383 8.471318,-7.62383 L 78.7585,144.1819 c -0.560693,-0.5607 -1.463472,-0.5607 -2.024166,0 l -26.106417,26.1059 v 9.68313 c 0,12.68704 10.213887,22.90092 22.900928,22.90092 z" /><path
         id="path3"
         style="fill:#ffffff;fill-opacity:0.996078;stroke:none;stroke-width:0.203927"
         d="m 117.37837,202.87185 c 0.0247,-0.0211 13.07503,-11.15718 14.00844,-18.94923 2.75614,-23.00792 -34.963188,-14.72512 -39.195538,-19.04948 -3.11045,-3.17807 1.846916,-5.41156 1.846916,-5.41156 0,0 -10.127448,2.47141 -8.471318,7.62383 1.3608,4.2336 29.35831,6.62233 22.72574,14.09371 -8.349467,9.40541 -34.763765,21.69273 -34.763765,21.69273 z" /><path
         id="path2"
         style="fill:#228c3a;fill-opacity:0.996078;stroke:none;stroke-width:0.203927"
         d="m 124.27252,126.87494 c -0.36587,0 -0.73148,0.1403 -1.01183,0.42065 l -29.222502,32.16599 c 0,0 -4.957366,2.23349 -1.846916,5.41156 4.23235,4.32436 41.951678,-3.95844 39.195538,19.04948 -0.93341,7.79205 -13.98372,18.92814 -14.00844,18.94923 h 19.09289 c 12.68704,0 22.90041,-10.21388 22.90041,-22.90092 v -17.31678 l -34.08681,-35.35856 c -0.27516,-0.28543 -0.64647,-0.42065 -1.01234,-0.42065 z" /><path
         id="path1"
         style="fill:#dc1845;fill-opacity:1;stroke:none;stroke-width:0.221"
         d="m 94.856527,108.12811 c -8.623559,-2e-4 -15.614468,6.99047 -15.61455,15.61403 0.0034,6.56435 3.905226,12.05469 7.615786,17.3381 3.82857,5.45144 6.876421,10.73721 8.198059,10.6322 1.634068,-0.0976 4.506074,-5.56798 8.581878,-11.45631 3.73208,-5.39177 6.83291,-10.64125 6.83291,-16.51399 -8e-5,-8.62336 -6.99068,-15.61395 -15.614036,-15.61403 z m -5.17e-4,8.45788 c 4.024303,-1.5e-4 7.28676,3.26208 7.28689,7.28638 1.5e-4,4.0245 -3.262388,7.28704 -7.28689,7.28689 -4.0243,-1.3e-4 -7.286527,-3.26259 -7.286376,-7.28689 1.31e-4,-4.0241 3.262275,-7.28625 7.286376,-7.28638 z"
         sodipodi:nodetypes="scscscsssssss" /></g><rect
       style="fill:#ffffff;fill-opacity:1;stroke:none;stroke-width:0.203927"
       id="rect1-1-2"
       width="108.74375"
       height="108.74375"
       x="50.628227"
       y="130.98714"
       ry="22.900797" /><path
       id="rect1-4"
       style="fill:#1b722f;fill-opacity:0.996078;stroke:none;stroke-width:0.203927"
       d="m 73.528949,239.73086 c 0,0 26.414298,-12.28732 34.763761,-21.69273 6.63257,-7.47138 -21.364936,-9.86011 -22.725736,-14.09371 -1.65613,-5.15242 8.471318,-7.62383 8.471318,-7.62383 L 78.758604,181.04091 c -0.560693,-0.5607 -1.463472,-0.5607 -2.024166,0 l -26.106417,26.1059 v 9.68313 c 0,12.68704 10.213887,22.90092 22.900928,22.90092 z" /><path
       id="path3-5"
       style="fill:#febc85;fill-opacity:0.996078;stroke:none;stroke-width:0.203927"
       d="m 117.37847,239.73086 c 0.0247,-0.0211 13.07503,-11.15718 14.00844,-18.94923 2.75614,-23.00792 -34.963184,-14.72512 -39.195534,-19.04948 -3.11045,-3.17807 1.846916,-5.41156 1.846916,-5.41156 0,0 -10.127448,2.47141 -8.471318,7.62383 1.3608,4.2336 29.358306,6.62233 22.725736,14.09371 -8.349463,9.40541 -34.763761,21.69273 -34.763761,21.69273 z" /><path
       id="path2-5"
       style="fill:#28a745;fill-opacity:0.996078;stroke:none;stroke-width:0.203927"
       d="m 124.27262,163.73395 c -0.36587,0 -0.73148,0.1403 -1.01183,0.42065 l -29.222498,32.16599 c 0,0 -4.957366,2.23349 -1.846916,5.41156 4.23235,4.32436 41.951674,-3.95844 39.195534,19.04948 -0.93341,7.79205 -13.98372,18.92814 -14.00844,18.94923 h 19.09289 c 12.68704,0 22.90041,-10.21388 22.90041,-22.90092 V 199.51316 L 125.28496,164.1546 c -0.27516,-0.28543 -0.64647,-0.42065 -1.01234,-0.42065 z" /><path
       id="path1-1"
       style="fill:#dc1845;fill-opacity:1;stroke:none;stroke-width:0.221"
       d="m 94.856631,144.98712 c -8.623559,-2e-4 -15.614468,6.99047 -15.61455,15.61403 0.0034,6.56435 3.905226,12.05469 7.615786,17.3381 3.82857,5.45144 6.876421,10.73721 8.198059,10.6322 1.634068,-0.0976 4.506074,-5.56798 8.581874,-11.45631 3.73208,-5.39177 6.83291,-10.64125 6.83291,-16.51399 -8e-5,-8.62336 -6.99068,-15.61395 -15.614032,-15.61403 z m -5.17e-4,8.45788 c 4.024303,-1.5e-4 7.286756,3.26208 7.286886,7.28638 1.5e-4,4.0245 -3.262384,7.28704 -7.286886,7.28689 -4.0243,-1.3e-4 -7.286527,-3.26259 -7.286376,-7.28689 1.31e-4,-4.0241 3.262275,-7.28625 7.286376,-7.28638 z"
       sodipodi:nodetypes="scscscsssssss" /></g></svg>
