<?xml version="1.0" encoding="UTF-8" standalone="no"?>
<!-- Created with Inkscape (http://www.inkscape.org/) -->

<svg
   width="210mm"
   height="297mm"
   viewBox="0 0 210 297"
   version="1.1"
   id="svg1"
   xml:space="preserve"
   inkscape:version="1.4.2 (f4327f4, 2025-05-13)"
   sodipodi:docname="2_version.svg"
   xmlns:inkscape="http://www.inkscape.org/namespaces/inkscape"
   xmlns:sodipodi="http://sodipodi.sourceforge.net/DTD/sodipodi-0.dtd"
   xmlns="http://www.w3.org/2000/svg"
   xmlns:svg="http://www.w3.org/2000/svg"><sodipodi:namedview
     id="namedview1"
     pagecolor="#ffffff"
     bordercolor="#000000"
     borderopacity="0.25"
     inkscape:showpageshadow="2"
     inkscape:pageopacity="0.0"
     inkscape:pagecheckerboard="0"
     inkscape:deskcolor="#d1d1d1"
     inkscape:document-units="mm"
     inkscape:zoom="0.71891835"
     inkscape:cx="138.40237"
     inkscape:cy="558.47789"
     inkscape:window-width="1920"
     inkscape:window-height="1009"
     inkscape:window-x="1912"
     inkscape:window-y="-8"
     inkscape:window-maximized="1"
     inkscape:current-layer="layer1" /><defs
     id="defs1" /><g
     inkscape:label="Слой 1"
     inkscape:groupmode="layer"
     id="layer1"><rect
       style="fill:#ffffff;fill-opacity:1;stroke:none;stroke-width:0.195284;stroke-linecap:square;stroke-miterlimit:4.5;stroke-dasharray:none;stroke-opacity:1"
       id="rect6"
       width="72.325645"
       height="72.729431"
       x="70.835625"
       y="107.15643"
       ry="14.314851" /><path
       id="path3"
       style="fill:#0073cf;fill-opacity:1;stroke:none;stroke-width:0.215275;stroke-linecap:square;stroke-miterlimit:4.5;stroke-dasharray:none;stroke-opacity:1"
       d="m 92.366642,144.86647 c -0.453076,0.003 -0.904627,0.19935 -1.248723,0.58685 l -16.158841,18.1975 h 19.184497 l 8.021855,-8.90321 -8.541005,-9.31413 c -0.350248,-0.38194 -0.804701,-0.57064 -1.257783,-0.56701 z" /><path
       id="path4"
       style="fill:#00a200;fill-opacity:1;stroke:none;stroke-width:0.220769;stroke-linecap:square;stroke-miterlimit:4.5;stroke-dasharray:none;stroke-opacity:1"
       d="m 118.09909,142.32503 c -0.27474,0 -0.54967,0.10511 -0.76019,0.31563 l -19.381581,21.01016 h 41.912111 l -21.01058,-21.01016 c -0.21052,-0.21051 -0.48502,-0.31563 -0.75976,-0.31563 z"
       sodipodi:nodetypes="sscccs" /><path
       id="path5"
       style="fill:#ff0000;fill-opacity:1;stroke:none;stroke-width:0.186181;stroke-linecap:square;stroke-miterlimit:4.5;stroke-opacity:1"
       d="m 105.01311,118.59814 c -2.81801,-0.0401 -5.636206,0.9568 -7.709978,3.03057 -4.147534,4.14753 -4.047668,8.54414 -0.798807,15.5529 2.646927,5.71022 6.596865,11.32342 8.495675,11.31839 2.00586,-0.005 6.8324,-7.87555 8.28315,-11.31797 2.41536,-5.73129 3.58773,-11.2451 -0.56005,-15.39289 -2.0739,-2.07389 -4.89197,-3.15094 -7.70999,-3.191 z m -0.17017,5.85498 c 2.85299,3e-5 5.16578,2.31282 5.16581,5.16581 -3e-5,2.853 -2.31282,5.16579 -5.16581,5.16582 -2.85299,-3e-5 -5.165782,-2.31282 -5.165815,-5.16582 3.3e-5,-2.85299 2.312815,-5.16578 5.165815,-5.16581 z"
       sodipodi:nodetypes="ssscsssccccc" /></g></svg>
